<mxfile host="app.diagrams.net" modified="2023-10-09T07:08:25.560Z" agent="Mozilla/5.0 (Windows NT 10.0; Win64; x64) AppleWebKit/537.36 (KHTML, like Gecko) Chrome/117.0.0.0 Safari/537.36" etag="NCxbT_nMxdqM0-0q0LoA" version="21.7.4" type="github">
  <diagram name="Page-1" id="q2OHCNMDlY2qczkB9ltx">
    <mxGraphModel dx="1257" dy="683" grid="1" gridSize="10" guides="1" tooltips="1" connect="1" arrows="1" fold="1" page="1" pageScale="1" pageWidth="850" pageHeight="1100" math="0" shadow="0">
      <root>
        <mxCell id="0" />
        <mxCell id="1" parent="0" />
        <mxCell id="LiBBR_nrGwsZVUtIo27p-2" value="&lt;h3 style=&quot;text-align: justify;&quot;&gt;&lt;span style=&quot;background-color: initial;&quot;&gt;&lt;b&gt;&lt;font style=&quot;font-size: 21px;&quot;&gt;Perpustakaan Digital&lt;/font&gt;&lt;/b&gt;&lt;/span&gt;&lt;/h3&gt;" style="rounded=0;whiteSpace=wrap;html=1;horizontal=1;verticalAlign=top;" vertex="1" parent="1">
          <mxGeometry x="120" y="60" width="580" height="830" as="geometry" />
        </mxCell>
        <mxCell id="LiBBR_nrGwsZVUtIo27p-3" value="USER" style="shape=umlActor;verticalLabelPosition=bottom;verticalAlign=top;html=1;outlineConnect=0;" vertex="1" parent="1">
          <mxGeometry x="10" y="330" width="65" height="130" as="geometry" />
        </mxCell>
        <mxCell id="LiBBR_nrGwsZVUtIo27p-5" value="" style="ellipse;whiteSpace=wrap;html=1;" vertex="1" parent="1">
          <mxGeometry x="180" y="140" width="225" height="150" as="geometry" />
        </mxCell>
        <mxCell id="LiBBR_nrGwsZVUtIo27p-6" value="" style="ellipse;whiteSpace=wrap;html=1;" vertex="1" parent="1">
          <mxGeometry x="180" y="325" width="225" height="150" as="geometry" />
        </mxCell>
        <mxCell id="LiBBR_nrGwsZVUtIo27p-7" value="" style="ellipse;whiteSpace=wrap;html=1;" vertex="1" parent="1">
          <mxGeometry x="180" y="510" width="225" height="150" as="geometry" />
        </mxCell>
        <mxCell id="LiBBR_nrGwsZVUtIo27p-8" value="" style="ellipse;whiteSpace=wrap;html=1;" vertex="1" parent="1">
          <mxGeometry x="180" y="700" width="225" height="150" as="geometry" />
        </mxCell>
        <mxCell id="LiBBR_nrGwsZVUtIo27p-9" value="" style="ellipse;whiteSpace=wrap;html=1;" vertex="1" parent="1">
          <mxGeometry x="430" y="130" width="225" height="150" as="geometry" />
        </mxCell>
        <mxCell id="LiBBR_nrGwsZVUtIo27p-10" value="" style="ellipse;whiteSpace=wrap;html=1;" vertex="1" parent="1">
          <mxGeometry x="430" y="700" width="225" height="150" as="geometry" />
        </mxCell>
        <mxCell id="LiBBR_nrGwsZVUtIo27p-11" value="" style="ellipse;whiteSpace=wrap;html=1;" vertex="1" parent="1">
          <mxGeometry x="430" y="510" width="225" height="150" as="geometry" />
        </mxCell>
        <mxCell id="LiBBR_nrGwsZVUtIo27p-12" value="" style="ellipse;whiteSpace=wrap;html=1;" vertex="1" parent="1">
          <mxGeometry x="430" y="325" width="225" height="150" as="geometry" />
        </mxCell>
        <mxCell id="LiBBR_nrGwsZVUtIo27p-13" value="USER" style="shape=umlActor;verticalLabelPosition=bottom;verticalAlign=top;html=1;outlineConnect=0;" vertex="1" parent="1">
          <mxGeometry x="760" y="330" width="65" height="130" as="geometry" />
        </mxCell>
      </root>
    </mxGraphModel>
  </diagram>
</mxfile>
